<?xml version="1.0" encoding="utf-8"?>
<!-- Generator: Adobe Illustrator 19.0.0, SVG Export Plug-In . SVG Version: 6.00 Build 0)  -->
<svg version="1.1" id="Layer_1" xmlns="http://www.w3.org/2000/svg" xmlns:xlink="http://www.w3.org/1999/xlink" x="0px" y="0px"
	 viewBox="0 0 222.6 72.4" style="enable-background:new 0 0 222.6 72.4;" xml:space="preserve">
<style type="text/css">
	.st0{fill:url(#XMLID_105_);}
	.st1{fill:url(#XMLID_106_);}
	.st2{fill:url(#XMLID_107_);}
	.st3{fill:url(#XMLID_108_);}
	.st4{fill:url(#XMLID_109_);}
	.st5{fill:url(#XMLID_110_);}
	.st6{fill:url(#XMLID_111_);}
	.st7{fill:url(#XMLID_112_);}
	.st8{fill:url(#XMLID_113_);}
	.st9{fill:url(#XMLID_114_);}
</style>
<g id="XMLID_1_">
	<g id="XMLID_228_">
		<linearGradient id="XMLID_105_" gradientUnits="userSpaceOnUse" x1="67.1013" y1="32.2137" x2="213.8357" y2="32.2137">
			<stop  offset="0" style="stop-color:#00D47C"/>
			<stop  offset="0.1391" style="stop-color:#00D185"/>
			<stop  offset="0.3704" style="stop-color:#00CA9F"/>
			<stop  offset="0.6654" style="stop-color:#00BEC8"/>
			<stop  offset="0.9968" style="stop-color:#00AFFF"/>
		</linearGradient>
		<path id="XMLID_241_" class="st0" d="M82.8,44.2c0.6-0.3,1.2-0.8,1.7-1.3c0.3-0.3,0.7-0.5,1.2-0.6c0.4-0.1,0.9,0,1.3,0.2
			c0.6,0.4,1,0.9,1.1,1.6c0.1,0.7-0.1,1.3-0.6,1.8c-0.1,0.1-0.1,0.1-0.2,0.2c-0.1,0.1-0.2,0.2-0.3,0.3c-0.1,0.1-0.2,0.1-0.3,0.2
			c-0.1,0.1-0.2,0.2-0.3,0.2C86.2,47,86.1,47,86,47.1c-0.1,0.1-0.2,0.2-0.3,0.2c-0.1,0.1-0.2,0.1-0.3,0.2c-0.1,0.1-0.2,0.1-0.3,0.2
			c-1.8,1-3.8,1.5-5.9,1.5c-1.8,0-3.3-0.3-4.7-0.9c-1.5-0.6-2.7-1.5-3.8-2.6c-1.1-1.1-2-2.4-2.6-3.8c-0.6-1.6-1-3.1-1-4.7
			c0-1.8,0.3-3.3,0.9-4.7c0.6-1.5,1.4-2.7,2.5-3.8c1.1-1.1,2.3-2,3.7-2.6c1.5-0.6,3.1-1,4.6-1c1.5,0,3.1,0.3,4.6,1
			c1.4,0.6,2.7,1.5,3.7,2.6c0.3,0.3,0.5,0.5,0.7,0.8c0.2,0.3,0.4,0.6,0.7,0.9c0.2,0.3,0.4,0.6,0.6,1c0.2,0.3,0.3,0.7,0.5,1
			c0.2,0.5,0.3,1.1,0.3,1.7c0,0.7-0.1,1.2-0.3,1.7c-0.2,0.5-0.5,1-0.9,1.4c-0.4,0.4-0.8,0.8-1.4,1l-0.3,0.1
			c-0.6,0.3-1.3,0.4-1.9,0.4H73.8c-0.6,0-1.1,0.3-1.3,0.8c-0.3,0.5-0.3,1,0.1,1.6c0.4,0.7,1,1.3,1.7,1.9c0.7,0.6,1.5,1,2.2,1.2
			c0.9,0.3,1.8,0.4,2.7,0.4C80.4,45,81.6,44.7,82.8,44.2z M72.6,33c-0.1,0.1-0.2,0.2-0.2,0.3c-0.3,0.5-0.2,1,0,1.4
			c0.3,0.5,0.8,0.8,1.4,0.8h10.1c0.6,0,1.1-0.3,1.4-0.8c0.3-0.4,0.3-0.9,0-1.4c-0.1-0.1-0.1-0.2-0.2-0.3c-0.1-0.2-0.3-0.4-0.4-0.7
			c-0.2-0.2-0.4-0.4-0.6-0.7c-0.2-0.3-0.5-0.5-0.9-0.8c-0.6-0.4-1.3-0.8-2-1c-0.7-0.2-1.4-0.4-2.2-0.4h-0.1h0
			c-1.5,0-2.9,0.4-4.2,1.3c-0.4,0.3-0.7,0.5-1,0.8c-0.3,0.3-0.5,0.5-0.6,0.7C72.9,32.6,72.7,32.8,72.6,33z"/>
		<linearGradient id="XMLID_106_" gradientUnits="userSpaceOnUse" x1="67.1013" y1="32.2137" x2="213.8357" y2="32.2137">
			<stop  offset="0" style="stop-color:#00D47C"/>
			<stop  offset="0.1391" style="stop-color:#00D185"/>
			<stop  offset="0.3704" style="stop-color:#00CA9F"/>
			<stop  offset="0.6654" style="stop-color:#00BEC8"/>
			<stop  offset="0.9968" style="stop-color:#00AFFF"/>
		</linearGradient>
		<path id="XMLID_238_" class="st1" d="M121.1,45.1c0,1-0.4,1.9-1.1,2.6c-0.7,0.7-1.6,1.1-2.6,1.1h-0.2c-0.4,0-0.7,0-1.1-0.1
			c-0.3-0.1-0.7-0.2-1.2-0.2c-0.5-0.1-0.9,0-1.3,0.1c-1.1,0.5-2.4,0.7-3.9,0.7c-1.7,0-3.3-0.3-4.7-0.9c-1.4-0.6-2.7-1.5-3.8-2.6
			c-1.1-1.2-1.9-2.4-2.5-3.8c-0.6-1.5-1-3.1-1-4.7c0-1.6,0.3-3.2,1-4.7c0.6-1.4,1.5-2.7,2.5-3.8c1.1-1.1,2.4-2,3.8-2.6
			c1.5-0.6,3.1-1,4.7-1c1.6,0,3,0.3,4.4,0.9c1.4,0.6,2.6,1.4,3.6,2.4c1,1,1.8,2.2,2.4,3.6c0.6,1.4,0.9,2.8,0.9,4.4V45.1z M109.8,45
			c1.5,0,2.9-0.4,4.1-1.1c1.2-0.7,2.1-1.7,2.8-2.9c0.6-1.1,0.9-2.4,0.9-3.7c0-1.3-0.3-2.6-0.9-3.7c-0.7-1.2-1.6-2.2-2.8-3
			c-1.2-0.7-2.5-1.1-4.1-1.1c-1.1,0-2.1,0.2-3,0.6c-0.5,0.2-0.9,0.4-1.3,0.7c-0.4,0.3-0.8,0.6-1.2,0.9c-0.7,0.8-1.3,1.6-1.7,2.5
			c-0.4,1-0.6,2-0.6,3c0,1.1,0.2,2.1,0.6,3c0.4,0.9,1,1.7,1.7,2.5c0.8,0.7,1.6,1.3,2.5,1.7C107.8,44.8,108.8,45,109.8,45z"/>
		<linearGradient id="XMLID_107_" gradientUnits="userSpaceOnUse" x1="67.1013" y1="32.2137" x2="213.8357" y2="32.2137">
			<stop  offset="0" style="stop-color:#00D47C"/>
			<stop  offset="0.1391" style="stop-color:#00D185"/>
			<stop  offset="0.3704" style="stop-color:#00CA9F"/>
			<stop  offset="0.6654" style="stop-color:#00BEC8"/>
			<stop  offset="0.9968" style="stop-color:#00AFFF"/>
		</linearGradient>
		<path id="XMLID_236_" class="st2" d="M145.3,25.9c0.4,0.4,0.6,0.9,0.6,1.5v0.2c0,0.6-0.2,1.1-0.6,1.5c-0.4,0.4-0.9,0.6-1.5,0.6h0
			c-1,0-1.9,0.2-2.9,0.5c-1,0.4-1.9,0.9-2.6,1.5c-0.8,0.6-1.5,1.4-2,2.2c-0.5,0.9-0.9,1.8-1,2.7v9.9c0,0.6-0.2,1.1-0.6,1.6
			c-0.4,0.4-0.9,0.6-1.5,0.6s-1.1-0.2-1.5-0.6c-0.4-0.4-0.6-1-0.6-1.6V27.9c0-0.6,0.2-1.2,0.6-1.6c0.4-0.4,1-0.7,1.6-0.7
			c0.7,0,1.2,0.2,1.6,0.7c0.1,0.1,0.1,0.1,0.2,0.2c0.1,0,0.1,0.1,0.1,0.2c0.1,0.1,0.3,0.2,0.4,0.3c0.1,0.1,0.3,0.2,0.4,0.2h0.2
			c0.2,0,0.4-0.1,0.7-0.2c0.2-0.1,0.4-0.2,0.7-0.3c0.3-0.1,0.6-0.3,0.8-0.4c0.3-0.1,0.6-0.2,0.8-0.3c0.3-0.1,0.5-0.2,0.7-0.2
			c0.7-0.2,1.4-0.3,2.1-0.4c0.7-0.1,1.3-0.1,1.9-0.1h0C144.4,25.2,144.9,25.4,145.3,25.9z"/>
		<linearGradient id="XMLID_108_" gradientUnits="userSpaceOnUse" x1="67.1013" y1="32.2137" x2="213.8357" y2="32.2137">
			<stop  offset="0" style="stop-color:#00D47C"/>
			<stop  offset="0.1391" style="stop-color:#00D185"/>
			<stop  offset="0.3704" style="stop-color:#00CA9F"/>
			<stop  offset="0.6654" style="stop-color:#00BEC8"/>
			<stop  offset="0.9968" style="stop-color:#00AFFF"/>
		</linearGradient>
		<path id="XMLID_234_" class="st3" d="M168,47.1c0,0.6-0.3,1.2-0.8,1.6c-0.5,0.4-1.1,0.6-1.7,0.5c-0.5-0.1-0.9-0.2-1.4-0.3
			c-0.4-0.1-0.9-0.3-1.3-0.4c-1.4-0.6-2.7-1.4-3.6-2.5c-1-1-1.7-2.3-2.2-3.7c-0.5-1.4-0.7-3-0.7-4.6v-7.5h-2.8
			c-0.6,0-1.1-0.2-1.5-0.6c-0.4-0.4-0.6-0.9-0.6-1.5c0-0.6,0.2-1.2,0.6-1.6c0.4-0.4,0.9-0.6,1.5-0.6h0.6c0.6,0,1.1-0.2,1.5-0.6
			c0.4-0.4,0.6-0.9,0.6-1.5V21c0-0.6,0.2-1.1,0.6-1.6c0.4-0.4,1-0.6,1.6-0.6c0.6,0,1.1,0.2,1.5,0.6c0.4,0.4,0.6,1,0.6,1.6v4.8h6.9
			c0.6,0,1.1,0.2,1.5,0.6c0.4,0.4,0.6,0.9,0.6,1.6c0,0.6-0.2,1.1-0.6,1.5c-0.4,0.4-0.9,0.6-1.5,0.6h-6.9v7.5c0,1,0.1,2,0.4,2.9
			c0.3,0.9,0.7,1.7,1.2,2.4c0.6,0.7,1.3,1.2,2.3,1.6c0.4,0.2,1,0.4,1.7,0.5c0.5,0.1,1,0.3,1.3,0.7C167.9,46.1,168,46.5,168,47.1z"/>
		<linearGradient id="XMLID_109_" gradientUnits="userSpaceOnUse" x1="67.1013" y1="32.2137" x2="213.8357" y2="32.2137">
			<stop  offset="0" style="stop-color:#00D47C"/>
			<stop  offset="0.1391" style="stop-color:#00D185"/>
			<stop  offset="0.3704" style="stop-color:#00CA9F"/>
			<stop  offset="0.6654" style="stop-color:#00BEC8"/>
			<stop  offset="0.9968" style="stop-color:#00AFFF"/>
		</linearGradient>
		<path id="XMLID_232_" class="st4" d="M196.9,28.7c0.9,1,1.7,2.3,2.2,3.7c0.5,1.3,0.8,2.9,0.8,4.6v9.7c0,0.6-0.2,1.1-0.6,1.5
			c-0.4,0.4-0.9,0.6-1.5,0.6c-0.6,0-1.1-0.2-1.5-0.6c-0.4-0.4-0.6-0.9-0.6-1.5V37c0-1.1-0.2-2.1-0.5-3c-0.3-0.9-0.7-1.7-1.3-2.4
			c-0.5-0.7-1.2-1.2-2.1-1.6c-0.8-0.4-1.7-0.6-2.8-0.6c-0.9,0-1.8,0.2-2.7,0.5c-0.8,0.4-1.4,0.8-2,1.4c-0.3,0.3-0.5,0.7-0.7,1
			c-0.2,0.4-0.4,0.7-0.6,1.2c-0.4,0.8-0.5,1.7-0.6,2.6v10.6c0,0.6-0.2,1.1-0.6,1.5c-0.4,0.4-0.9,0.6-1.5,0.6h-0.2
			c-0.6,0-1.1-0.2-1.5-0.6s-0.6-1.1-0.6-1.9V17.4c0-0.6,0.2-1.2,0.6-1.6c0.4-0.4,0.9-0.6,1.5-0.6c0.6,0,1.2,0.2,1.6,0.6
			c0.4,0.4,0.6,0.9,0.6,1.6v6.6c0,0.4,0.1,0.7,0.4,0.9c0.3,0.3,0.6,0.4,0.9,0.4h3.2h2.1c1.6,0,3.1,0.3,4.4,1
			C194.9,26.8,196,27.7,196.9,28.7z"/>
		<linearGradient id="XMLID_110_" gradientUnits="userSpaceOnUse" x1="67.1013" y1="32.2137" x2="213.8357" y2="32.2137">
			<stop  offset="0" style="stop-color:#00D47C"/>
			<stop  offset="0.1391" style="stop-color:#00D185"/>
			<stop  offset="0.3704" style="stop-color:#00CA9F"/>
			<stop  offset="0.6654" style="stop-color:#00BEC8"/>
			<stop  offset="0.9968" style="stop-color:#00AFFF"/>
		</linearGradient>
		<path id="XMLID_229_" class="st5" d="M213.8,19.3c0,0.7-0.2,1.3-0.7,1.8c-0.5,0.5-1.1,0.7-1.7,0.7c-0.7,0-1.3-0.2-1.8-0.7
			c-0.5-0.5-0.7-1.1-0.7-1.8c0-0.7,0.2-1.2,0.7-1.7c0.5-0.5,1.1-0.7,1.8-0.7c0.7,0,1.2,0.2,1.7,0.7
			C213.6,18.1,213.8,18.7,213.8,19.3z M211.3,25.7c-0.6,0-1.1,0.2-1.6,0.6c-0.4,0.4-0.6,1-0.6,1.6v18.5c0,0.6,0.2,1.2,0.6,1.6
			c0.4,0.4,1,0.6,1.6,0.6c0.6,0,1.2-0.2,1.6-0.6c0.4-0.4,0.6-1,0.6-1.6V28c0-0.6-0.2-1.2-0.6-1.6C212.5,25.9,212,25.7,211.3,25.7z"
			/>
	</g>
</g>
<g id="XMLID_24_">
	<g id="XMLID_177_">
		<g id="XMLID_193_">
			<g id="XMLID_194_">
				<path id="XMLID_195_" d="M42.9,55.8c-0.3-0.5-0.9-0.6-1.4-0.4l0,0c-0.5,0.3-0.6,0.9-0.4,1.4c0.2,0.3,0.5,0.5,0.9,0.5
					c0.2,0,0.3,0,0.5-0.1l0,0C43,56.9,43.1,56.3,42.9,55.8z"/>
			</g>
		</g>
		<g id="XMLID_186_">
			<g id="XMLID_187_">
				<path id="XMLID_188_" d="M51.8,22.6c-3.4-5.9-8.8-10.1-15.4-11.8C29.8,9,23,9.9,17.2,13.3c-5.9,3.4-10.1,8.8-11.8,15.4
					S4.5,42.1,7.9,47.9c3,5.3,7.9,9.3,13.6,11.3c2.7,0.9,5.5,1.4,8.4,1.4c3.1,0,6.1-0.6,9-1.7c0.5-0.2,0.8-0.8,0.6-1.3
					s-0.8-0.8-1.3-0.6c-7.7,3-16.1,1.6-22.3-3.1l0.9-4.6l0.4-0.1c1.6-0.5,2.5-2.3,2-3.9l-0.3-1c-0.1-0.2-0.1-0.5,0-0.7
					c0.3-0.8,0.2-1.8-0.3-2.5c-0.4-0.8-1.2-1.3-2.1-1.5l-2.2-0.4L9.9,36c-0.3-0.2-0.6-0.3-0.9-0.2l-2.5,0.8c-0.1-0.9-0.1-1.8,0-2.7
					c0.1,0.1,0.2,0.2,0.2,0.2c0,0.1,0.1,0.2,0.2,0.2c0.2,0.2,0.4,0.3,0.8,0.3c0.4,0,0.9-0.1,1.8-0.2c0.8-0.1,1.7-0.3,1.7-0.3
					c0.3-0.1,0.6-0.3,0.7-0.6c0.1-0.3,0.1-0.7-0.1-0.9l-1.2-1.8l1.7-1.2c0.1-0.1,0.2-0.2,0.3-0.3l2.7-4.7l1.1-1.2
					c1.1-1.2,1.4-2.9,0.8-4.4c-0.4-0.9-1-1.6-1.8-2.1c0.9-0.7,1.8-1.3,2.8-1.9c3.6-2.1,7.5-3.1,11.4-3.1l-1.8,2.2l-6.6,2.3
					c-0.3,0.1-0.5,0.3-0.6,0.6l-1.8,4.4c-0.1,0.3-0.1,0.7,0.1,1l2.7,3.7c-0.4,0.3-0.8,0.9-1.2,1.5c-0.2,0.3-0.4,0.5-0.5,0.7
					c-0.1,0.1-0.2,0.3-0.3,0.4C19,29.3,18.4,30,18,30.9c-0.9,2-0.7,4.3,0.5,6c1.2,1.7,3.2,2.5,5.2,2.3c0.3,0,0.7-0.1,1-0.2
					c0.8-0.2,1.1-0.2,1.4,0c0.1,0.1,0.1,0.1,0.1,0.6c0,0.3,0,0.6,0.1,1c0.1,0.6,0.5,1,0.8,1.4c0.2,0.2,0.3,0.3,0.4,0.5
					c0.3,0.7,0.2,1.1-0.1,2c0,0.1-0.1,0.2-0.1,0.2c-0.4,1.4,0.2,2.8,0.7,4c0.2,0.4,0.3,0.8,0.5,1.1c0.9,2.6,1.6,3.2,2.1,3.5
					c0.3,0.1,0.6,0.2,0.9,0.2c1.4,0,2.9-1.3,3.6-2.2c0.4-0.5,0.5-1.1,0.6-1.4c0-0.2,0.1-0.3,0.1-0.4c0.1-0.2,0.2-0.3,0.3-0.4
					c0.3-0.3,0.6-0.7,0.8-1.3c0.2-0.5,0.3-0.6,0.7-1.1c0.1-0.1,0.1-0.1,0.2-0.2c1.3-1.4,1-2.5,0.6-3.7c-0.3-1,0.2-1.6,1.5-2.8
					c0.6-0.5,1.1-1.1,1.6-1.7c0.2-0.3,0.8-1.1,0.4-2c-0.4-0.8-1.3-1-2-1.1c-0.3,0-0.7-0.1-0.9-0.2c-0.6-0.4-1-1.2-1.3-2
					c-0.1-0.2-0.1-0.3-0.2-0.5c-0.1-0.3-0.3-0.6-0.4-1c-0.4-0.9-0.8-2-1.5-2.7c-0.6-0.7-1.8-1-2.8-1.3c-0.3-0.1-0.7-0.2-0.9-0.3
					c-0.2-0.1-0.4-0.1-0.6,0c-0.5,0.1-0.8,0.2-1.1,0.4c-0.1,0-0.2,0.2-0.4,0.5c-0.4-0.2-0.9-0.5-1.2-0.7c0,0,0,0,0,0
					c0.1-0.4,0-0.7-0.1-1c-0.6-1.2-2.4-1.1-2.8-1c-0.2,0-0.5,0-0.7,0c-0.4,0-0.9,0-1.4,0.1l0-0.1c0.4-1,1.3-1.7,2.4-1.7h0.6
					c0.5,0,1-0.4,1-1c0-0.5-0.4-1-1-1h-0.6c-1.6,0-3,0.8-3.8,2.1l-1.5-2.1l1.5-3.5l6.4-2.2c0.2-0.1,0.3-0.2,0.4-0.3L32,12
					c7.3,0.7,14.1,4.8,18,11.6c1,1.8,1.8,3.7,2.3,5.7L52,29.6c-0.5,0.5-0.9,1.2-0.9,1.9c0,0,0,0,0,0l-0.7-1.9
					c-0.1-0.3-0.3-0.5-0.4-0.8l-1.2-1.4c-0.5-0.6-1.2-0.9-1.9-0.9h-1.5c-0.5,0-1,0.3-1.3,0.8c-0.2,0.5-0.2,1,0.1,1.5l0.2,0.2
					c-1,0.8-2.1,1.5-3.3,1.9l-2-3.9v-0.9c0-0.3-0.1-0.5-0.3-0.7l-1.8-1.8c-0.1-0.1-0.2-0.2-0.4-0.2l-1.7-0.6
					c-0.5-0.2-1.1,0.1-1.3,0.6c-0.2,0.5,0.1,1.1,0.6,1.3l1.5,0.5l1.4,1.3v0.7c0,0.2,0,0.3,0.1,0.5l2.6,4.9c0.2,0.4,0.8,0.6,1.2,0.5
					l0.7-0.3c1.7-0.6,3.3-1.7,4.6-3c0.3-0.3,0.4-0.9,0.1-1.2l-0.1-0.1h0.5c0.1,0,0.3,0.1,0.4,0.2l1.2,1.4c0,0,0.1,0.1,0.1,0.2
					l1.3,3.7c0.1,0.3,0.4,0.6,0.7,0.6c0.1,0,0.1,0,0.2,0c0.3,0,0.5-0.1,0.7-0.3l0.6-0.6c0.4-0.4,0.7-0.9,0.8-1.5
					c1,7.9-2.1,16.2-8.7,21.3c-0.4,0.3-0.5,1-0.2,1.4c0.3,0.4,1,0.5,1.4,0.2c4.8-3.7,8-9.1,9.2-15C55.9,34.1,54.8,27.9,51.8,22.6z
					 M9.2,37.9l4.1,3.1c0.1,0.1,0.3,0.2,0.4,0.2l2.5,0.5c0.3,0.1,0.6,0.2,0.7,0.5c0.2,0.3,0.2,0.6,0.1,0.9c-0.2,0.6-0.2,1.3,0,1.9
					l0.3,1c0.2,0.6-0.1,1.2-0.7,1.4l-1,0.3c-0.3,0.1-0.6,0.4-0.7,0.8l-0.8,4.1c-1.7-1.6-3.3-3.5-4.5-5.6c-1.5-2.6-2.5-5.4-2.9-8.2
					L9.2,37.9z M14.9,22.1l-1.2,1.2c-0.1,0.1-0.1,0.1-0.1,0.2L11,28.2l-2.4,1.7c-0.4,0.3-0.5,0.9-0.2,1.4l0.9,1.3
					c-0.5,0.1-1,0.1-1.3,0.2c-0.1-0.1-0.1-0.1-0.2-0.2c-0.2-0.2-0.6-0.5-1-0.9c0.8-5,3.2-9.7,7-13.2c0.7,0.2,1.3,0.8,1.6,1.5
					C15.7,20.6,15.5,21.5,14.9,22.1z M23,27.5c0.4-0.2,1.5-0.3,2.2-0.3c0.3,0,0.6,0,0.8,0c0.1,0,0.3,0,0.4,0
					c-0.1,0.2-0.1,0.3-0.1,0.5c0,0.3,0.2,0.6,0.5,0.7c0.2,0.1,0.4,0.3,0.7,0.5c0.8,0.5,1.7,1.1,2.5,1.2c0.7,0,1.2-0.4,1.3-0.6
					c0,0,0,0,0,0c0.1-0.1,0.2-0.2,0.3-0.3c0.2,0,0.3,0.1,0.5,0.1c0.6,0.2,1.7,0.5,1.9,0.7c0.4,0.5,0.8,1.3,1.1,2.1
					c0.1,0.4,0.3,0.7,0.4,1.1c0.1,0.1,0.1,0.3,0.2,0.4c0.5,1,1,2.2,2.1,2.9c0.5,0.3,1.1,0.4,1.6,0.5c0.1,0,0.1,0,0.2,0
					c-0.3,0.4-0.8,0.9-1.3,1.3c-1.2,1.1-2.8,2.6-2,4.8c0.3,1.1,0.3,1.2-0.2,1.8c-0.1,0.1-0.1,0.2-0.2,0.2c-0.5,0.5-0.8,0.9-1.1,1.8
					c-0.1,0.3-0.2,0.4-0.4,0.6c-0.2,0.2-0.4,0.4-0.6,0.7c-0.2,0.4-0.3,0.8-0.4,1.1c-0.1,0.3-0.1,0.4-0.2,0.6
					c-0.3,0.3-0.7,0.8-1.2,1.1c-0.5,0.3-0.7,0.3-0.8,0.3c-0.1-0.1-0.5-0.6-1.1-2.3c-0.1-0.4-0.3-0.9-0.5-1.3
					c-0.4-0.9-0.9-1.9-0.6-2.5c0-0.1,0-0.2,0.1-0.2c0.3-1,0.7-2,0.1-3.4c-0.2-0.4-0.5-0.7-0.7-1c-0.2-0.2-0.3-0.4-0.4-0.5
					c0-0.1,0-0.3,0-0.5c0-0.5,0-1.3-0.8-2c-1.1-1-2.4-0.7-3.2-0.5c-0.3,0.1-0.5,0.1-0.7,0.2c-1.4,0.2-2.6-0.4-3.4-1.4
					c-0.8-1.1-0.9-2.6-0.3-4c0.3-0.6,0.8-1.1,1.3-1.7c0.1-0.1,0.2-0.3,0.3-0.4c0.2-0.2,0.4-0.5,0.6-0.8C22.3,28.4,22.8,27.7,23,27.5
					z"/>
			</g>
		</g>
		<g id="XMLID_181_">
			<g id="XMLID_182_">
				<path id="XMLID_183_" d="M45.1,44l-0.5-1.8c-0.1-0.4-0.4-0.7-0.8-0.7c-0.4,0-0.8,0.2-1,0.5c-0.1,0.2-0.2,0.4-0.3,0.6
					c-0.2,0.3-0.3,0.7-0.5,0.9c-0.1,0.1-0.3,0.2-0.6,0.3c-0.6,0.3-1.4,0.7-1.6,1.6c-0.2,0.6-0.1,1.1-0.1,1.4c0,0.3,0.1,0.4,0,0.6
					l0,0c-0.3,0.7-0.9,2.1-0.1,3.3c0.6,0.8,1.2,1,1.7,1c0.1,0,0.2,0,0.3,0c1-0.2,1.8-1.2,2.4-3.3l1.2-3.9
					C45.1,44.3,45.1,44.2,45.1,44z M42,47.9c-0.3,1.1-0.6,1.6-0.8,1.8c0,0,0-0.1-0.1-0.1c-0.2-0.3,0.1-0.9,0.3-1.4l0,0
					c0.3-0.7,0.2-1.3,0.2-1.6c0-0.3-0.1-0.4,0-0.5c0-0.1,0.3-0.2,0.6-0.4c0.2-0.1,0.3-0.2,0.5-0.3L42,47.9z"/>
			</g>
		</g>
		<g id="XMLID_178_">
			<g id="XMLID_179_">
				<path id="XMLID_180_" d="M31.2,21.7L31.2,21.7c-0.6-0.2-1.1,0.1-1.3,0.6c-0.2,0.5,0.1,1.1,0.6,1.3l0.1,0c0.1,0,0.2,0.1,0.3,0.1
					c0.4,0,0.8-0.3,0.9-0.7C32,22.4,31.7,21.9,31.2,21.7z"/>
			</g>
		</g>
	</g>
	<g id="XMLID_158_">
		<g id="XMLID_174_">
			<g id="XMLID_175_">
				<linearGradient id="XMLID_111_" gradientUnits="userSpaceOnUse" x1="4.4815" y1="35.249" x2="55.1675" y2="35.249">
					<stop  offset="0" style="stop-color:#00D47C"/>
					<stop  offset="0.1388" style="stop-color:#00D185"/>
					<stop  offset="0.3695" style="stop-color:#00CA9F"/>
					<stop  offset="0.6638" style="stop-color:#00BEC8"/>
					<stop  offset="0.9944" style="stop-color:#00AFFF"/>
				</linearGradient>
				<path id="XMLID_176_" class="st6" d="M42.9,55.8c-0.3-0.5-0.9-0.6-1.4-0.4l0,0c-0.5,0.3-0.6,0.9-0.4,1.4
					c0.2,0.3,0.5,0.5,0.9,0.5c0.2,0,0.3,0,0.5-0.1l0,0C43,56.9,43.1,56.3,42.9,55.8z"/>
			</g>
		</g>
		<g id="XMLID_167_">
			<g id="XMLID_168_">
				<linearGradient id="XMLID_112_" gradientUnits="userSpaceOnUse" x1="4.4815" y1="35.249" x2="55.1675" y2="35.249">
					<stop  offset="0" style="stop-color:#00D47C"/>
					<stop  offset="0.1388" style="stop-color:#00D185"/>
					<stop  offset="0.3695" style="stop-color:#00CA9F"/>
					<stop  offset="0.6638" style="stop-color:#00BEC8"/>
					<stop  offset="0.9944" style="stop-color:#00AFFF"/>
				</linearGradient>
				<path id="XMLID_169_" class="st7" d="M51.8,22.6c-3.4-5.9-8.8-10.1-15.4-11.8C29.8,9,23,9.9,17.2,13.3
					c-5.9,3.4-10.1,8.8-11.8,15.4S4.5,42.1,7.9,47.9c3,5.3,7.9,9.3,13.6,11.3c2.7,0.9,5.5,1.4,8.4,1.4c3.1,0,6.1-0.6,9-1.7
					c0.5-0.2,0.8-0.8,0.6-1.3s-0.8-0.8-1.3-0.6c-7.7,3-16.1,1.6-22.3-3.1l0.9-4.6l0.4-0.1c1.6-0.5,2.5-2.3,2-3.9l-0.3-1
					c-0.1-0.2-0.1-0.5,0-0.7c0.3-0.8,0.2-1.8-0.3-2.5c-0.4-0.8-1.2-1.3-2.1-1.5l-2.2-0.4L9.9,36c-0.3-0.2-0.6-0.3-0.9-0.2l-2.5,0.8
					c-0.1-0.9-0.1-1.8,0-2.7c0.1,0.1,0.2,0.2,0.2,0.2c0,0.1,0.1,0.2,0.2,0.2c0.2,0.2,0.4,0.3,0.8,0.3c0.4,0,0.9-0.1,1.8-0.2
					c0.8-0.1,1.7-0.3,1.7-0.3c0.3-0.1,0.6-0.3,0.7-0.6c0.1-0.3,0.1-0.7-0.1-0.9l-1.2-1.8l1.7-1.2c0.1-0.1,0.2-0.2,0.3-0.3l2.7-4.7
					l1.1-1.2c1.1-1.2,1.4-2.9,0.8-4.4c-0.4-0.9-1-1.6-1.8-2.1c0.9-0.7,1.8-1.3,2.8-1.9c3.6-2.1,7.5-3.1,11.4-3.1l-1.8,2.2l-6.6,2.3
					c-0.3,0.1-0.5,0.3-0.6,0.6l-1.8,4.4c-0.1,0.3-0.1,0.7,0.1,1l2.7,3.7c-0.4,0.3-0.8,0.9-1.2,1.5c-0.2,0.3-0.4,0.5-0.5,0.7
					c-0.1,0.1-0.2,0.3-0.3,0.4C19,29.3,18.4,30,18,30.9c-0.9,2-0.7,4.3,0.5,6c1.2,1.7,3.2,2.5,5.2,2.3c0.3,0,0.7-0.1,1-0.2
					c0.8-0.2,1.1-0.2,1.4,0c0.1,0.1,0.1,0.1,0.1,0.6c0,0.3,0,0.6,0.1,1c0.1,0.6,0.5,1,0.8,1.4c0.2,0.2,0.3,0.3,0.4,0.5
					c0.3,0.7,0.2,1.1-0.1,2c0,0.1-0.1,0.2-0.1,0.2c-0.4,1.4,0.2,2.8,0.7,4c0.2,0.4,0.3,0.8,0.5,1.1c0.9,2.6,1.6,3.2,2.1,3.5
					c0.3,0.1,0.6,0.2,0.9,0.2c1.4,0,2.9-1.3,3.6-2.2c0.4-0.5,0.5-1.1,0.6-1.4c0-0.2,0.1-0.3,0.1-0.4c0.1-0.2,0.2-0.3,0.3-0.4
					c0.3-0.3,0.6-0.7,0.8-1.3c0.2-0.5,0.3-0.6,0.7-1.1c0.1-0.1,0.1-0.1,0.2-0.2c1.3-1.4,1-2.5,0.6-3.7c-0.3-1,0.2-1.6,1.5-2.8
					c0.6-0.5,1.1-1.1,1.6-1.7c0.2-0.3,0.8-1.1,0.4-2c-0.4-0.8-1.3-1-2-1.1c-0.3,0-0.7-0.1-0.9-0.2c-0.6-0.4-1-1.2-1.3-2
					c-0.1-0.2-0.1-0.3-0.2-0.5c-0.1-0.3-0.3-0.6-0.4-1c-0.4-0.9-0.8-2-1.5-2.7c-0.6-0.7-1.8-1-2.8-1.3c-0.3-0.1-0.7-0.2-0.9-0.3
					c-0.2-0.1-0.4-0.1-0.6,0c-0.5,0.1-0.8,0.2-1.1,0.4c-0.1,0-0.2,0.2-0.4,0.5c-0.4-0.2-0.9-0.5-1.2-0.7c0,0,0,0,0,0
					c0.1-0.4,0-0.7-0.1-1c-0.6-1.2-2.4-1.1-2.8-1c-0.2,0-0.5,0-0.7,0c-0.4,0-0.9,0-1.4,0.1l0-0.1c0.4-1,1.3-1.7,2.4-1.7h0.6
					c0.5,0,1-0.4,1-1c0-0.5-0.4-1-1-1h-0.6c-1.6,0-3,0.8-3.8,2.1l-1.5-2.1l1.5-3.5l6.4-2.2c0.2-0.1,0.3-0.2,0.4-0.3L32,12
					c7.3,0.7,14.1,4.8,18,11.6c1,1.8,1.8,3.7,2.3,5.7L52,29.6c-0.5,0.5-0.9,1.2-0.9,1.9c0,0,0,0,0,0l-0.7-1.9
					c-0.1-0.3-0.3-0.5-0.4-0.8l-1.2-1.4c-0.5-0.6-1.2-0.9-1.9-0.9h-1.5c-0.5,0-1,0.3-1.3,0.8c-0.2,0.5-0.2,1,0.1,1.5l0.2,0.2
					c-1,0.8-2.1,1.5-3.3,1.9l-2-3.9v-0.9c0-0.3-0.1-0.5-0.3-0.7l-1.8-1.8c-0.1-0.1-0.2-0.2-0.4-0.2l-1.7-0.6
					c-0.5-0.2-1.1,0.1-1.3,0.6c-0.2,0.5,0.1,1.1,0.6,1.3l1.5,0.5l1.4,1.3v0.7c0,0.2,0,0.3,0.1,0.5l2.6,4.9c0.2,0.4,0.8,0.6,1.2,0.5
					l0.7-0.3c1.7-0.6,3.3-1.7,4.6-3c0.3-0.3,0.4-0.9,0.1-1.2l-0.1-0.1h0.5c0.1,0,0.3,0.1,0.4,0.2l1.2,1.4c0,0,0.1,0.1,0.1,0.2
					l1.3,3.7c0.1,0.3,0.4,0.6,0.7,0.6c0.1,0,0.1,0,0.2,0c0.3,0,0.5-0.1,0.7-0.3l0.6-0.6c0.4-0.4,0.7-0.9,0.8-1.5
					c1,7.9-2.1,16.2-8.7,21.3c-0.4,0.3-0.5,1-0.2,1.4c0.3,0.4,1,0.5,1.4,0.2c4.8-3.7,8-9.1,9.2-15C55.9,34.1,54.8,27.9,51.8,22.6z
					 M9.2,37.9l4.1,3.1c0.1,0.1,0.3,0.2,0.4,0.2l2.5,0.5c0.3,0.1,0.6,0.2,0.7,0.5c0.2,0.3,0.2,0.6,0.1,0.9c-0.2,0.6-0.2,1.3,0,1.9
					l0.3,1c0.2,0.6-0.1,1.2-0.7,1.4l-1,0.3c-0.3,0.1-0.6,0.4-0.7,0.8l-0.8,4.1c-1.7-1.6-3.3-3.5-4.5-5.6c-1.5-2.6-2.5-5.4-2.9-8.2
					L9.2,37.9z M14.9,22.1l-1.2,1.2c-0.1,0.1-0.1,0.1-0.1,0.2L11,28.2l-2.4,1.7c-0.4,0.3-0.5,0.9-0.2,1.4l0.9,1.3
					c-0.5,0.1-1,0.1-1.3,0.2c-0.1-0.1-0.1-0.1-0.2-0.2c-0.2-0.2-0.6-0.5-1-0.9c0.8-5,3.2-9.7,7-13.2c0.7,0.2,1.3,0.8,1.6,1.5
					C15.7,20.6,15.5,21.5,14.9,22.1z M23,27.5c0.4-0.2,1.5-0.3,2.2-0.3c0.3,0,0.6,0,0.8,0c0.1,0,0.3,0,0.4,0
					c-0.1,0.2-0.1,0.3-0.1,0.5c0,0.3,0.2,0.6,0.5,0.7c0.2,0.1,0.4,0.3,0.7,0.5c0.8,0.5,1.7,1.1,2.5,1.2c0.7,0,1.2-0.4,1.3-0.6
					c0,0,0,0,0,0c0.1-0.1,0.2-0.2,0.3-0.3c0.2,0,0.3,0.1,0.5,0.1c0.6,0.2,1.7,0.5,1.9,0.7c0.4,0.5,0.8,1.3,1.1,2.1
					c0.1,0.4,0.3,0.7,0.4,1.1c0.1,0.1,0.1,0.3,0.2,0.4c0.5,1,1,2.2,2.1,2.9c0.5,0.3,1.1,0.4,1.6,0.5c0.1,0,0.1,0,0.2,0
					c-0.3,0.4-0.8,0.9-1.3,1.3c-1.2,1.1-2.8,2.6-2,4.8c0.3,1.1,0.3,1.2-0.2,1.8c-0.1,0.1-0.1,0.2-0.2,0.2c-0.5,0.5-0.8,0.9-1.1,1.8
					c-0.1,0.3-0.2,0.4-0.4,0.6c-0.2,0.2-0.4,0.4-0.6,0.7c-0.2,0.4-0.3,0.8-0.4,1.1c-0.1,0.3-0.1,0.4-0.2,0.6
					c-0.3,0.3-0.7,0.8-1.2,1.1c-0.5,0.3-0.7,0.3-0.8,0.3c-0.1-0.1-0.5-0.6-1.1-2.3c-0.1-0.4-0.3-0.9-0.5-1.3
					c-0.4-0.9-0.9-1.9-0.6-2.5c0-0.1,0-0.2,0.1-0.2c0.3-1,0.7-2,0.1-3.4c-0.2-0.4-0.5-0.7-0.7-1c-0.2-0.2-0.3-0.4-0.4-0.5
					c0-0.1,0-0.3,0-0.5c0-0.5,0-1.3-0.8-2c-1.1-1-2.4-0.7-3.2-0.5c-0.3,0.1-0.5,0.1-0.7,0.2c-1.4,0.2-2.6-0.4-3.4-1.4
					c-0.8-1.1-0.9-2.6-0.3-4c0.3-0.6,0.8-1.1,1.3-1.7c0.1-0.1,0.2-0.3,0.3-0.4c0.2-0.2,0.4-0.5,0.6-0.8C22.3,28.4,22.8,27.7,23,27.5
					z"/>
			</g>
		</g>
		<g id="XMLID_162_">
			<g id="XMLID_163_">
				<linearGradient id="XMLID_113_" gradientUnits="userSpaceOnUse" x1="4.4815" y1="35.249" x2="55.1675" y2="35.249">
					<stop  offset="0" style="stop-color:#00D47C"/>
					<stop  offset="0.1388" style="stop-color:#00D185"/>
					<stop  offset="0.3695" style="stop-color:#00CA9F"/>
					<stop  offset="0.6638" style="stop-color:#00BEC8"/>
					<stop  offset="0.9944" style="stop-color:#00AFFF"/>
				</linearGradient>
				<path id="XMLID_164_" class="st8" d="M45.1,44l-0.5-1.8c-0.1-0.4-0.4-0.7-0.8-0.7c-0.4,0-0.8,0.2-1,0.5
					c-0.1,0.2-0.2,0.4-0.3,0.6c-0.2,0.3-0.3,0.7-0.5,0.9c-0.1,0.1-0.3,0.2-0.6,0.3c-0.6,0.3-1.4,0.7-1.6,1.6
					c-0.2,0.6-0.1,1.1-0.1,1.4c0,0.3,0.1,0.4,0,0.6l0,0c-0.3,0.7-0.9,2.1-0.1,3.3c0.6,0.8,1.2,1,1.7,1c0.1,0,0.2,0,0.3,0
					c1-0.2,1.8-1.2,2.4-3.3l1.2-3.9C45.1,44.3,45.1,44.2,45.1,44z M42,47.9c-0.3,1.1-0.6,1.6-0.8,1.8c0,0,0-0.1-0.1-0.1
					c-0.2-0.3,0.1-0.9,0.3-1.4l0,0c0.3-0.7,0.2-1.3,0.2-1.6c0-0.3-0.1-0.4,0-0.5c0-0.1,0.3-0.2,0.6-0.4c0.2-0.1,0.3-0.2,0.5-0.3
					L42,47.9z"/>
			</g>
		</g>
		<g id="XMLID_159_">
			<g id="XMLID_160_">
				<linearGradient id="XMLID_114_" gradientUnits="userSpaceOnUse" x1="4.4815" y1="35.249" x2="55.1675" y2="35.249">
					<stop  offset="0" style="stop-color:#00D47C"/>
					<stop  offset="0.1388" style="stop-color:#00D185"/>
					<stop  offset="0.3695" style="stop-color:#00CA9F"/>
					<stop  offset="0.6638" style="stop-color:#00BEC8"/>
					<stop  offset="0.9944" style="stop-color:#00AFFF"/>
				</linearGradient>
				<path id="XMLID_161_" class="st9" d="M31.2,21.7L31.2,21.7c-0.6-0.2-1.1,0.1-1.3,0.6c-0.2,0.5,0.1,1.1,0.6,1.3l0.1,0
					c0.1,0,0.2,0.1,0.3,0.1c0.4,0,0.8-0.3,0.9-0.7C32,22.4,31.7,21.9,31.2,21.7z"/>
			</g>
		</g>
	</g>
</g>
<g id="XMLID_86_">
</g>
<g id="XMLID_99_">
</g>
<g id="XMLID_101_">
</g>
<g id="XMLID_102_">
</g>
<g id="XMLID_103_">
</g>
</svg>
