<?xml version="1.0" encoding="utf-8"?>
<!-- Generator: Adobe Illustrator 19.0.0, SVG Export Plug-In . SVG Version: 6.00 Build 0)  -->
<svg version="1.1" id="Layer_1" xmlns="http://www.w3.org/2000/svg" xmlns:xlink="http://www.w3.org/1999/xlink" x="0px" y="0px"
	 viewBox="36 39.6 222.6 72.4" style="enable-background:new 36 39.6 222.6 72.4;" xml:space="preserve">
<style type="text/css">
	.st0{fill:#5FBA5A;}
</style>
<g id="XMLID_86_">
</g>
<g id="XMLID_99_">
</g>
<g id="XMLID_101_">
</g>
<g id="XMLID_102_">
</g>
<g>
	<path class="st0" d="M119.6,84.6c0.6-0.3,1.2-0.8,1.7-1.3c0.3-0.3,0.7-0.5,1.2-0.6c0.4-0.1,0.9,0,1.3,0.2c0.6,0.4,1,0.9,1.1,1.6
		c0.1,0.7-0.1,1.3-0.6,1.8c-0.1,0.1-0.1,0.1-0.2,0.2c-0.1,0.1-0.2,0.2-0.3,0.3c-0.1,0.1-0.2,0.1-0.3,0.2s-0.2,0.2-0.3,0.2
		c-0.1,0.1-0.2,0.1-0.3,0.2c-0.1,0.1-0.2,0.2-0.3,0.2c-0.1,0.1-0.2,0.1-0.3,0.2c-0.1,0.1-0.2,0.1-0.3,0.2c-1.8,1-3.8,1.5-5.9,1.5
		c-1.8,0-3.3-0.3-4.7-0.9c-1.5-0.6-2.7-1.5-3.8-2.6c-1.1-1.1-2-2.4-2.6-3.8c-0.6-1.6-1-3.1-1-4.7c0-1.8,0.3-3.3,0.9-4.7
		c0.6-1.5,1.4-2.7,2.5-3.8c1.1-1.1,2.3-2,3.7-2.6c1.5-0.6,3.1-1,4.6-1c1.5,0,3.1,0.3,4.6,1c1.4,0.6,2.7,1.5,3.7,2.6
		c0.3,0.3,0.5,0.5,0.7,0.8c0.2,0.3,0.4,0.6,0.7,0.9c0.2,0.3,0.4,0.6,0.6,1c0.2,0.3,0.3,0.7,0.5,1c0.2,0.5,0.3,1.1,0.3,1.7
		c0,0.7-0.1,1.2-0.3,1.7c-0.2,0.5-0.5,1-0.9,1.4s-0.8,0.8-1.4,1L124,79c-0.6,0.3-1.3,0.4-1.9,0.4h-11.4c-0.6,0-1.1,0.3-1.3,0.8
		c-0.3,0.5-0.3,1,0.1,1.6c0.4,0.7,1,1.3,1.7,1.9c0.7,0.6,1.5,1,2.2,1.2c0.9,0.3,1.8,0.4,2.7,0.4C117.3,85.5,118.5,85.2,119.6,84.6z
		 M109.4,73.5c-0.1,0.1-0.2,0.2-0.2,0.3c-0.3,0.5-0.2,1,0,1.4c0.3,0.5,0.8,0.8,1.4,0.8h10.1c0.6,0,1.1-0.3,1.4-0.8
		c0.3-0.4,0.3-0.9,0-1.4c-0.1-0.1-0.1-0.2-0.2-0.3c-0.1-0.2-0.3-0.4-0.4-0.7c-0.2-0.2-0.4-0.4-0.6-0.7c-0.2-0.3-0.5-0.5-0.9-0.8
		c-0.6-0.4-1.3-0.8-2-1c-0.7-0.2-1.4-0.4-2.2-0.4h-0.1h0c-1.5,0-2.9,0.4-4.2,1.3c-0.4,0.3-0.7,0.5-1,0.8c-0.3,0.3-0.5,0.5-0.6,0.7
		C109.7,73,109.5,73.3,109.4,73.5z"/>
	<path class="st0" d="M155.6,85.6c0,1-0.4,1.9-1.1,2.6c-0.7,0.7-1.6,1.1-2.6,1.1h-0.2c-0.4,0-0.7,0-1.1-0.1
		c-0.3-0.1-0.7-0.2-1.2-0.2c-0.5-0.1-0.9,0-1.3,0.1c-1.1,0.5-2.4,0.7-3.9,0.7c-1.7,0-3.3-0.3-4.7-0.9c-1.4-0.6-2.7-1.5-3.8-2.6
		c-1.1-1.2-1.9-2.4-2.5-3.8c-0.6-1.5-1-3.1-1-4.7c0-1.6,0.3-3.2,1-4.7c0.6-1.4,1.5-2.7,2.5-3.8c1.1-1.1,2.4-2,3.8-2.6
		c1.5-0.6,3.1-1,4.7-1c1.6,0,3,0.3,4.4,0.9c1.4,0.6,2.6,1.4,3.6,2.4c1,1,1.8,2.2,2.4,3.6c0.6,1.4,0.9,2.8,0.9,4.4V85.6z M144.3,85.5
		c1.5,0,2.9-0.4,4.1-1.1c1.2-0.7,2.1-1.7,2.8-2.9c0.6-1.1,0.9-2.4,0.9-3.7c0-1.3-0.3-2.6-0.9-3.7c-0.7-1.2-1.6-2.2-2.8-3
		c-1.2-0.7-2.5-1.1-4.1-1.1c-1.1,0-2.1,0.2-3,0.6c-0.5,0.2-0.9,0.4-1.3,0.7c-0.4,0.3-0.8,0.6-1.2,0.9c-0.7,0.8-1.3,1.6-1.7,2.5
		c-0.4,1-0.6,2-0.6,3c0,1.1,0.2,2.1,0.6,3c0.4,0.9,1,1.7,1.7,2.5c0.8,0.7,1.6,1.3,2.5,1.7C142.2,85.3,143.2,85.5,144.3,85.5z"/>
	<path class="st0" d="M177.4,66.3c0.4,0.4,0.6,0.9,0.6,1.5v0.2c0,0.6-0.2,1.1-0.6,1.5c-0.4,0.4-0.9,0.6-1.5,0.6h0
		c-1,0-1.9,0.2-2.9,0.5c-1,0.4-1.9,0.9-2.6,1.5c-0.8,0.6-1.5,1.4-2,2.2c-0.5,0.9-0.9,1.8-1,2.7V87c0,0.6-0.2,1.1-0.6,1.6
		s-0.9,0.6-1.5,0.6c-0.6,0-1.1-0.2-1.5-0.6s-0.6-1-0.6-1.6V68.4c0-0.6,0.2-1.2,0.6-1.6c0.4-0.4,1-0.7,1.6-0.7c0.7,0,1.2,0.2,1.6,0.7
		c0.1,0.1,0.1,0.1,0.2,0.2c0.1,0,0.1,0.1,0.1,0.2c0.1,0.1,0.3,0.2,0.4,0.3c0.1,0.1,0.3,0.2,0.4,0.2h0.2c0.2,0,0.4-0.1,0.7-0.2
		c0.2-0.1,0.4-0.2,0.7-0.3c0.3-0.1,0.6-0.3,0.8-0.4c0.3-0.1,0.6-0.2,0.8-0.3s0.5-0.2,0.7-0.2c0.7-0.2,1.4-0.3,2.1-0.4
		c0.7-0.1,1.3-0.1,1.9-0.1h0C176.5,65.7,177,65.9,177.4,66.3z"/>
	<path class="st0" d="M197.7,87.5c0,0.6-0.3,1.2-0.8,1.6c-0.5,0.4-1.1,0.6-1.7,0.5c-0.5-0.1-0.9-0.2-1.4-0.3
		c-0.4-0.1-0.9-0.3-1.3-0.4c-1.4-0.6-2.7-1.4-3.6-2.5c-1-1-1.7-2.3-2.2-3.7c-0.5-1.4-0.7-3-0.7-4.6v-7.5h-2.8
		c-0.6,0-1.1-0.2-1.5-0.6c-0.4-0.4-0.6-0.9-0.6-1.5c0-0.6,0.2-1.2,0.6-1.6c0.4-0.4,0.9-0.6,1.5-0.6h0.6c0.6,0,1.1-0.2,1.5-0.6
		c0.4-0.4,0.6-0.9,0.6-1.5v-2.6c0-0.6,0.2-1.1,0.6-1.6c0.4-0.4,1-0.6,1.6-0.6c0.6,0,1.1,0.2,1.5,0.6c0.4,0.4,0.6,1,0.6,1.6v4.8h6.9
		c0.6,0,1.1,0.2,1.5,0.6c0.4,0.4,0.6,0.9,0.6,1.6c0,0.6-0.2,1.1-0.6,1.5c-0.4,0.4-0.9,0.6-1.5,0.6h-6.9v7.5c0,1,0.1,2,0.4,2.9
		c0.3,0.9,0.7,1.7,1.2,2.4c0.6,0.7,1.3,1.2,2.3,1.6c0.4,0.2,1,0.4,1.7,0.5c0.5,0.1,1,0.3,1.3,0.7S197.7,87,197.7,87.5z"/>
	<path class="st0" d="M224.1,69.2c0.9,1,1.7,2.3,2.2,3.7c0.5,1.3,0.8,2.9,0.8,4.6v9.7c0,0.6-0.2,1.1-0.6,1.5
		c-0.4,0.4-0.9,0.6-1.5,0.6c-0.6,0-1.1-0.2-1.5-0.6c-0.4-0.4-0.6-0.9-0.6-1.5v-9.7c0-1.1-0.2-2.1-0.5-3c-0.3-0.9-0.7-1.7-1.3-2.4
		c-0.5-0.7-1.2-1.2-2.1-1.6c-0.8-0.4-1.7-0.6-2.8-0.6c-0.9,0-1.8,0.2-2.7,0.5c-0.8,0.4-1.4,0.8-2,1.4c-0.3,0.3-0.5,0.7-0.7,1
		c-0.2,0.4-0.4,0.7-0.6,1.2c-0.4,0.8-0.5,1.7-0.6,2.6v10.6c0,0.6-0.2,1.1-0.6,1.5c-0.4,0.4-0.9,0.6-1.5,0.6h-0.2
		c-0.6,0-1.1-0.2-1.5-0.6c-0.4-0.4-0.6-1.1-0.6-1.9V57.8c0-0.6,0.2-1.2,0.6-1.6c0.4-0.4,0.9-0.6,1.5-0.6c0.6,0,1.2,0.2,1.6,0.6
		c0.4,0.4,0.6,0.9,0.6,1.6v6.6c0,0.4,0.1,0.7,0.4,0.9c0.3,0.3,0.6,0.4,0.9,0.4h3.2h2.1c1.6,0,3.1,0.3,4.4,1
		C222.1,67.3,223.3,68.1,224.1,69.2z"/>
	<path class="st0" d="M238.7,59.8c0,0.7-0.2,1.3-0.7,1.8c-0.5,0.5-1.1,0.7-1.7,0.7c-0.7,0-1.3-0.2-1.8-0.7c-0.5-0.5-0.7-1.1-0.7-1.8
		c0-0.7,0.2-1.2,0.7-1.7c0.5-0.5,1.1-0.7,1.8-0.7c0.7,0,1.2,0.2,1.7,0.7C238.4,58.6,238.7,59.1,238.7,59.8z M236.2,66.2
		c-0.6,0-1.1,0.2-1.6,0.6c-0.4,0.4-0.6,1-0.6,1.6V87c0,0.6,0.2,1.2,0.6,1.6c0.4,0.4,1,0.6,1.6,0.6c0.6,0,1.2-0.2,1.6-0.6
		c0.4-0.4,0.6-1,0.6-1.6V68.4c0-0.6-0.2-1.2-0.6-1.6C237.4,66.4,236.8,66.2,236.2,66.2z"/>
</g>
<g>
	<g>
		<path class="st0" d="M80.6,92.3c-0.3-0.5-0.9-0.6-1.4-0.4l0,0c-0.5,0.3-0.6,0.9-0.4,1.4c0.2,0.3,0.5,0.5,0.9,0.5
			c0.2,0,0.3,0,0.5-0.1l0,0C80.7,93.4,80.9,92.7,80.6,92.3z"/>
	</g>
</g>
<g>
	<g>
		<path class="st0" d="M89.6,63c-3.4-5.9-8.9-10.1-15.5-11.9c-6.6-1.8-13.5-0.9-19.4,2.6c-5.9,3.4-10.1,8.9-11.9,15.5
			s-0.9,13.5,2.6,19.4c3.1,5.3,7.9,9.3,13.7,11.4c2.7,1,5.6,1.4,8.5,1.4c3.1,0,6.2-0.6,9.1-1.7c0.5-0.2,0.8-0.8,0.6-1.3
			s-0.8-0.8-1.3-0.6c-7.8,3-16.2,1.6-22.5-3.1l0.9-4.7l0.4-0.1c1.6-0.5,2.5-2.3,2-3.9l-0.3-1c-0.1-0.2-0.1-0.5,0-0.7
			c0.3-0.8,0.2-1.8-0.3-2.5c-0.5-0.8-1.2-1.3-2.1-1.5l-2.3-0.4l-4.4-3.3c-0.3-0.2-0.6-0.3-0.9-0.2L44,77.2c-0.1-0.9-0.1-1.8,0-2.7
			c0.1,0.1,0.2,0.2,0.2,0.2c0,0.1,0.1,0.2,0.2,0.2c0.2,0.2,0.4,0.3,0.8,0.3c0.4,0,0.9-0.1,1.8-0.2c0.8-0.1,1.7-0.3,1.7-0.3
			c0.3-0.1,0.6-0.3,0.8-0.6c0.1-0.3,0.1-0.7-0.1-1l-1.2-1.8l1.8-1.3c0.1-0.1,0.2-0.2,0.3-0.3l2.7-4.7l1.1-1.2c1.1-1.2,1.4-3,0.8-4.5
			c-0.4-0.9-1-1.6-1.8-2.1c0.9-0.7,1.8-1.3,2.8-1.9c3.6-2.1,7.6-3.1,11.5-3.2l-1.8,2.2l-6.6,2.3c-0.3,0.1-0.5,0.3-0.6,0.6l-1.8,4.5
			c-0.1,0.3-0.1,0.7,0.1,1l2.7,3.8c-0.4,0.4-0.8,0.9-1.2,1.5c-0.2,0.3-0.4,0.5-0.5,0.7c-0.1,0.1-0.2,0.3-0.3,0.4
			c-0.6,0.7-1.2,1.3-1.6,2.2c-0.9,2-0.7,4.3,0.5,6c1.2,1.7,3.2,2.5,5.3,2.3c0.3,0,0.7-0.1,1-0.2c0.9-0.2,1.1-0.2,1.4,0
			c0.1,0.1,0.1,0.1,0.1,0.6c0,0.3,0,0.6,0.1,1c0.1,0.6,0.5,1,0.8,1.4c0.2,0.2,0.3,0.3,0.4,0.5c0.3,0.7,0.2,1.2-0.1,2.1
			c0,0.1-0.1,0.2-0.1,0.2c-0.5,1.4,0.2,2.8,0.7,4c0.2,0.4,0.4,0.8,0.5,1.1c0.9,2.7,1.6,3.3,2.1,3.5c0.3,0.1,0.6,0.2,0.9,0.2
			c1.4,0,2.9-1.3,3.6-2.2c0.4-0.5,0.5-1.1,0.6-1.5c0-0.2,0.1-0.3,0.1-0.4c0.1-0.2,0.2-0.3,0.3-0.4c0.3-0.3,0.6-0.7,0.8-1.4
			c0.2-0.5,0.3-0.6,0.7-1.1c0.1-0.1,0.1-0.2,0.2-0.2c1.3-1.4,1-2.6,0.6-3.7c-0.3-1,0.2-1.6,1.5-2.8c0.6-0.5,1.1-1.1,1.6-1.7
			c0.2-0.3,0.8-1.1,0.4-2c-0.4-0.8-1.3-1-2-1.1c-0.3,0-0.7-0.1-0.9-0.2c-0.6-0.4-1-1.2-1.4-2.1c-0.1-0.2-0.1-0.3-0.2-0.5
			c-0.1-0.3-0.3-0.6-0.4-1c-0.4-0.9-0.8-2-1.5-2.8c-0.6-0.7-1.8-1-2.9-1.3c-0.4-0.1-0.7-0.2-0.9-0.3c-0.2-0.1-0.4-0.1-0.6,0
			c-0.5,0.1-0.8,0.3-1.1,0.4c-0.1,0.1-0.2,0.2-0.4,0.5c-0.4-0.2-0.9-0.5-1.2-0.7c0,0,0,0,0,0c0.1-0.4,0-0.8-0.1-1
			c-0.6-1.2-2.4-1.1-2.8-1.1c-0.2,0-0.5,0-0.7,0c-0.4,0-0.9,0-1.4,0.1l0-0.1c0.4-1,1.3-1.7,2.4-1.7h0.6c0.6,0,1-0.4,1-1
			c0-0.6-0.4-1-1-1h-0.6c-1.6,0-3,0.8-3.9,2.2l-1.5-2.1l1.5-3.6l6.5-2.3c0.2-0.1,0.3-0.2,0.5-0.3l2.9-3.6C77,53,83.9,57.2,87.9,64
			c1.1,1.8,1.8,3.8,2.4,5.7l-0.4,0.4c-0.6,0.5-0.9,1.2-0.9,1.9c0,0,0,0,0,0l-0.7-1.9c-0.1-0.3-0.3-0.5-0.4-0.8L86.6,68
			c-0.5-0.6-1.2-0.9-1.9-0.9h-1.5c-0.5,0-1,0.3-1.3,0.8c-0.3,0.5-0.2,1,0.1,1.5l0.2,0.2c-1,0.8-2.1,1.5-3.3,2l-2.1-4v-0.9
			c0-0.3-0.1-0.5-0.3-0.7l-1.9-1.8c-0.1-0.1-0.2-0.2-0.4-0.2l-1.7-0.6c-0.5-0.2-1.1,0.1-1.3,0.6c-0.2,0.5,0.1,1.1,0.6,1.3l1.5,0.5
			l1.4,1.3v0.7c0,0.2,0,0.3,0.1,0.5l2.6,5c0.2,0.4,0.8,0.6,1.2,0.5l0.8-0.3c1.7-0.6,3.4-1.7,4.7-3c0.3-0.3,0.4-0.9,0.1-1.3l-0.1-0.1
			h0.5c0.1,0,0.3,0.1,0.4,0.2l1.2,1.4c0,0,0.1,0.1,0.1,0.2l1.4,3.7c0.1,0.3,0.4,0.6,0.7,0.6c0.1,0,0.1,0,0.2,0
			c0.3,0,0.5-0.1,0.7-0.3l0.6-0.6c0.4-0.4,0.7-0.9,0.8-1.5c1,8-2.1,16.3-8.8,21.5c-0.4,0.3-0.5,1-0.2,1.4c0.3,0.4,1,0.5,1.4,0.2
			c4.8-3.8,8.1-9.1,9.3-15.2C93.8,74.7,92.7,68.4,89.6,63z M46.6,78.5l4.1,3.1c0.1,0.1,0.3,0.2,0.4,0.2l2.5,0.5
			c0.3,0.1,0.6,0.2,0.7,0.5c0.2,0.3,0.2,0.6,0.1,0.9c-0.2,0.6-0.2,1.3,0,1.9l0.3,1c0.2,0.6-0.1,1.2-0.7,1.4l-1,0.3
			c-0.3,0.1-0.6,0.4-0.7,0.8l-0.8,4.2c-1.8-1.6-3.3-3.5-4.6-5.7c-1.5-2.6-2.5-5.5-2.9-8.3L46.6,78.5z M52.5,62.5l-1.2,1.3
			c-0.1,0.1-0.1,0.1-0.1,0.2l-2.7,4.7l-2.4,1.7c-0.4,0.3-0.6,0.9-0.2,1.4l0.9,1.3c-0.5,0.1-1,0.1-1.3,0.2c-0.1-0.1-0.1-0.1-0.2-0.2
			c-0.2-0.2-0.6-0.5-1.1-0.9c0.8-5,3.2-9.8,7-13.4c0.7,0.2,1.3,0.8,1.6,1.5C53.2,61,53,61.9,52.5,62.5z M60.6,68
			c0.4-0.3,1.5-0.3,2.2-0.3c0.3,0,0.6,0,0.8,0c0.1,0,0.3,0,0.4,0C64,67.8,64,68,64,68.2c0,0.3,0.2,0.6,0.5,0.7
			c0.2,0.1,0.4,0.3,0.7,0.5c0.8,0.5,1.7,1.1,2.5,1.2c0.8,0,1.2-0.4,1.4-0.6c0,0,0,0,0,0c0.1-0.1,0.2-0.2,0.3-0.3
			c0.2,0,0.3,0.1,0.5,0.1c0.6,0.2,1.7,0.5,1.9,0.7c0.4,0.5,0.8,1.3,1.1,2.1c0.2,0.4,0.3,0.8,0.5,1.1c0.1,0.1,0.1,0.3,0.2,0.4
			c0.5,1,1,2.2,2.1,2.9c0.5,0.3,1.1,0.4,1.7,0.5c0.1,0,0.1,0,0.2,0c-0.3,0.5-0.8,0.9-1.3,1.3c-1.2,1.2-2.8,2.6-2.1,4.9
			c0.3,1.1,0.4,1.2-0.2,1.8c-0.1,0.1-0.1,0.2-0.2,0.2c-0.5,0.5-0.8,0.9-1.1,1.8c-0.1,0.3-0.2,0.4-0.4,0.6c-0.2,0.2-0.4,0.4-0.6,0.7
			c-0.2,0.4-0.3,0.8-0.4,1.1c-0.1,0.3-0.1,0.4-0.2,0.6c-0.3,0.3-0.8,0.8-1.3,1.1C69.5,92,69.2,92,69.1,92c-0.1-0.1-0.5-0.6-1.1-2.3
			c-0.1-0.4-0.3-0.9-0.5-1.3c-0.4-0.9-0.9-1.9-0.7-2.6c0-0.1,0.1-0.2,0.1-0.2c0.3-1,0.7-2,0.1-3.5c-0.2-0.4-0.5-0.8-0.7-1
			c-0.2-0.2-0.4-0.4-0.4-0.5c0-0.1,0-0.3,0-0.5c0-0.5,0-1.3-0.8-2c-1.1-1-2.4-0.7-3.2-0.5c-0.3,0.1-0.5,0.1-0.7,0.2
			c-1.4,0.2-2.7-0.4-3.4-1.5c-0.8-1.1-0.9-2.7-0.3-4c0.3-0.6,0.8-1.2,1.3-1.8c0.1-0.1,0.2-0.3,0.4-0.4c0.2-0.2,0.4-0.5,0.6-0.9
			C59.9,68.8,60.4,68.1,60.6,68z"/>
	</g>
</g>
<g>
	<g>
		<path class="st0" d="M82.9,80.3l-0.5-1.8c-0.1-0.4-0.4-0.7-0.8-0.7c-0.4,0-0.8,0.2-1,0.5c-0.1,0.2-0.2,0.4-0.3,0.6
			c-0.2,0.3-0.3,0.7-0.5,0.9c-0.1,0.1-0.3,0.2-0.6,0.3c-0.6,0.3-1.4,0.7-1.7,1.6c-0.2,0.6-0.1,1.1-0.1,1.4c0,0.3,0.1,0.4,0,0.6l0,0
			c-0.3,0.7-0.9,2.1-0.1,3.3c0.6,0.8,1.2,1.1,1.7,1.1c0.1,0,0.2,0,0.3,0c1-0.2,1.8-1.2,2.4-3.3l1.2-4C82.9,80.7,82.9,80.5,82.9,80.3
			z M79.8,84.2c-0.3,1.1-0.6,1.6-0.8,1.8c0,0,0-0.1-0.1-0.1c-0.2-0.3,0.1-0.9,0.3-1.4l0,0c0.3-0.7,0.2-1.3,0.2-1.7
			c0-0.3-0.1-0.4,0-0.5c0-0.1,0.3-0.2,0.6-0.4c0.2-0.1,0.3-0.2,0.5-0.3L79.8,84.2z"/>
	</g>
</g>
<g>
	<g>
		<path class="st0" d="M68.9,57.8L68.9,57.8c-0.6-0.2-1.2,0.1-1.3,0.6c-0.2,0.5,0.1,1.1,0.6,1.3l0.1,0c0.1,0,0.2,0.1,0.3,0.1
			c0.4,0,0.8-0.3,0.9-0.7C69.7,58.5,69.4,58,68.9,57.8z"/>
	</g>
</g>
</svg>
